<svg width="136" height="139" viewBox="0 0 136 139" fill="none" xmlns="http://www.w3.org/2000/svg">
    <defs>
        <linearGradient id="paint0_linear" x1="68" y1="0" x2="68" y2="139" gradientUnits="userSpaceOnUse">
        <stop stop-color="#E69633"/>
        <stop offset="1" stop-color="#CF497E"/>
        </linearGradient>
        </defs>
<path fill-rule="evenodd" clip-rule="evenodd" d="M109.575 83.0544C109.575 94.6165 99.7172 103.989 87.5575 103.989C75.3978 103.989 65.5404 94.6165 65.5404 83.0544C65.5404 71.4923 75.3978 62.1194 87.5575 62.1194C99.7172 62.1194 109.575 71.4923 109.575 83.0544ZM13.433 51.2913C14.9999 50.7198 15.8303 50.1916 17.1025 49.1257C17.1025 49.1257 19.3042 47.6819 20.772 44.0724C21.3769 42.5848 21.8323 41.3394 22.2717 40.1378C22.8984 38.4238 23.4925 36.799 24.4415 34.6877C25.9965 31.2285 28.845 26.025 28.845 26.025C28.845 26.025 31.9182 20.7541 34.7162 18.0841C37.683 15.253 39.8117 14.099 43.523 12.3089C46.5351 10.8562 51.596 9.42136 51.596 9.42136C51.596 9.42136 55.5789 8.29831 58.2011 7.97757C61.2467 7.60504 63.1363 7.72756 65.9468 7.90977C66.2859 7.93176 66.6384 7.95461 67.008 7.97757C69.5981 8.13848 71.054 8.27407 73.6131 8.69946C77.1087 9.28054 79.0825 9.68913 82.4199 10.8652C84.4748 11.5892 87.5573 13.0308 87.5573 13.0308C87.5573 13.0308 92.624 15.4298 95.6302 17.3622C101.07 20.8586 107.169 26.8302 108.107 28.1907C108.319 28.4986 108.517 28.7735 108.704 29.0322C109.342 29.9167 109.844 30.6131 110.308 31.8001C110.733 32.885 111.042 34.6877 111.042 34.6877C111.042 34.6877 111.418 36.937 111.042 38.2972C110.125 41.618 107.705 43.3505 104.437 43.3505H90.4929C82.42 43.3505 75.1355 44.1785 69.2097 45.5162C60.9041 47.3911 52.8501 50.7961 48.6604 52.7351C44.8313 54.5073 42.7097 55.5848 39.1196 57.7884C36.1516 59.6102 34.5663 60.7599 31.7806 62.8417C26.2844 66.9489 23.7076 69.3387 18.5703 74.392C13.433 79.4453 6.09394 90.9956 6.09394 90.9956L0.222704 101.824C0.798452 102.555 1.55592 103.625 2.46593 104.91C5.08789 108.614 8.9762 114.107 13.433 118.428C19.4366 124.248 26.7837 128.809 30.824 130.663C40.9874 135.329 42.583 135.718 49.6984 137.455C50.2901 137.599 50.9199 137.753 51.596 137.919C60.4028 140.085 72.3998 138.409 75.8148 137.919C78.707 137.503 80.3267 137.205 83.1539 136.475C87.275 135.411 89.5359 134.57 93.4285 132.866C97.2946 131.173 99.4079 130.061 102.969 127.812C106.925 125.315 112.51 120.593 112.51 120.593C112.51 120.593 119.115 114.818 124.252 107.599C129.39 100.38 132.759 91.4518 133.793 87.3862C134.57 84.3337 134.801 82.4561 135.16 79.538C135.193 79.2754 135.226 79.0044 135.261 78.7234L135.306 78.3627L135.306 78.3625C135.767 74.6561 136.041 72.4507 135.995 68.6169C135.954 65.2223 135.72 63.3187 135.261 59.9541L135.224 59.6795C134.821 56.724 134.582 54.9715 133.793 52.0132C133.22 49.8661 132.723 48.5386 132.038 46.7124C131.898 46.3383 131.75 45.9434 131.592 45.5162C131.402 45.0041 131.23 44.5311 131.067 44.0838C130.323 42.039 129.774 40.5326 128.656 38.2972C127.18 35.3473 126.156 33.7807 124.252 31.0782C121.933 27.7847 120.398 26.093 117.647 23.1374C115.458 20.7847 111.776 17.3622 111.776 17.3622C111.776 17.3622 107.373 13.7527 103.703 11.587C100.034 9.4214 92.525 5.87369 90.4929 5.08998L90.3788 5.046C87.0743 3.77151 85.1686 3.03653 81.686 2.2024C78.7155 1.4909 76.7499 1.27327 74.1163 0.981675C73.5026 0.913729 72.8527 0.841767 72.1453 0.758606C71.6737 0.70316 71.2331 0.65008 70.8141 0.599608C68.4408 0.313691 66.762 0.111445 64.0723 0.0367098C59.4795 -0.0909085 56.8764 0.105852 52.3299 0.758606C49.4377 1.17385 47.8172 1.46977 44.9908 2.2024C40.255 3.43 37.6768 4.47623 33.2484 6.53378C29.0697 8.47531 26.7986 9.75753 22.9737 12.3089C20.6017 13.8913 19.2759 14.8025 17.1025 16.6403C14.6436 18.7195 11.2313 22.4155 11.2313 22.4155C11.2313 22.4155 2.42443 31.8001 0.222648 39.0191C-0.27832 40.6616 0.222665 45.5162 0.222665 45.5162C0.222665 45.5162 0.915603 47.3995 1.69047 48.4038C4.51104 52.0595 9.05838 52.8868 13.433 51.2913Z" fill="url(#paint0_linear)"/>

</svg>
